<svg width="21" height="21" viewBox="0 0 21 21" fill="none" xmlns="http://www.w3.org/2000/svg">
<path d="M14.1094 11.4844L17.7188 7.875M9.51562 8.85938L12.1406 11.4844M3.28125 13.125L7.54688 8.85938" stroke="white" stroke-width="1.5" stroke-linecap="round" stroke-linejoin="round"/>
<path d="M18.7031 7.875C19.2468 7.875 19.6875 7.43428 19.6875 6.89062C19.6875 6.34697 19.2468 5.90625 18.7031 5.90625C18.1595 5.90625 17.7188 6.34697 17.7188 6.89062C17.7188 7.43428 18.1595 7.875 18.7031 7.875Z" stroke="white" stroke-width="1.5" stroke-linecap="round" stroke-linejoin="round"/>
<path d="M13.125 13.4531C13.6687 13.4531 14.1094 13.0124 14.1094 12.4688C14.1094 11.9251 13.6687 11.4844 13.125 11.4844C12.5813 11.4844 12.1406 11.9251 12.1406 12.4688C12.1406 13.0124 12.5813 13.4531 13.125 13.4531Z" stroke="white" stroke-width="1.5" stroke-linecap="round" stroke-linejoin="round"/>
<path d="M8.53125 8.85938C9.07491 8.85938 9.51562 8.41866 9.51562 7.875C9.51562 7.33134 9.07491 6.89062 8.53125 6.89062C7.98759 6.89062 7.54688 7.33134 7.54688 7.875C7.54688 8.41866 7.98759 8.85938 8.53125 8.85938Z" stroke="white" stroke-width="1.5" stroke-linecap="round" stroke-linejoin="round"/>
<path d="M2.29688 15.0938C2.84053 15.0938 3.28125 14.653 3.28125 14.1094C3.28125 13.5657 2.84053 13.125 2.29688 13.125C1.75322 13.125 1.3125 13.5657 1.3125 14.1094C1.3125 14.653 1.75322 15.0938 2.29688 15.0938Z" stroke="white" stroke-width="1.5" stroke-linecap="round" stroke-linejoin="round"/>
</svg>
