<svg width="17" height="19" viewBox="0 0 17 19" fill="none" xmlns="http://www.w3.org/2000/svg">
<path d="M1.025 13.6915L3.02321 2.35903C3.06064 2.14637 3.13959 1.94316 3.25556 1.76101C3.37153 1.57887 3.52225 1.42136 3.69911 1.29747C3.87597 1.17359 4.0755 1.08576 4.28631 1.039C4.49711 0.992246 4.71507 0.987478 4.92772 1.02497L14.6418 2.73878C15.0711 2.81455 15.4528 3.05776 15.7028 3.41492C15.9528 3.77208 16.0507 4.21394 15.975 4.64328L13.9768 15.9758C13.9394 16.1885 13.8604 16.3917 13.7444 16.5738C13.6285 16.7559 13.4777 16.9135 13.3009 17.0373C13.124 17.1612 12.9245 17.2491 12.7137 17.2958C12.5029 17.3426 12.2849 17.3473 12.0723 17.3098L2.35824 15.596C1.9289 15.5203 1.54723 15.2771 1.29721 14.9199C1.04718 14.5627 0.949265 14.1209 1.025 13.6915Z" stroke="white" stroke-width="1.5"/>
<path d="M5.9757 4.54883L12.452 5.69054M5.40443 7.78657L11.8807 8.92911M4.83398 11.0243L8.88137 11.7386" stroke="white" stroke-width="1.5" stroke-linecap="round"/>
</svg>
