<svg width="15" height="15" viewBox="0 0 15 15" fill="none" xmlns="http://www.w3.org/2000/svg">
<path d="M7.5 0C3.35826 0 0 3.35826 0 7.5C0 11.6417 3.35826 15 7.5 15C11.6417 15 15 11.6417 15 7.5C15 3.35826 11.6417 0 7.5 0ZM7.5 13.7277C4.06138 13.7277 1.27232 10.9386 1.27232 7.5C1.27232 4.06138 4.06138 1.27232 7.5 1.27232C10.9386 1.27232 13.7277 4.06138 13.7277 7.5C13.7277 10.9386 10.9386 13.7277 7.5 13.7277Z" fill="white"/>
<path d="M10.9724 7.28413L6.01535 3.6848C5.97559 3.65566 5.92852 3.63813 5.87939 3.63416C5.83025 3.6302 5.78098 3.63996 5.73707 3.66235C5.69315 3.68474 5.65632 3.71888 5.63067 3.76098C5.60502 3.80308 5.59156 3.85147 5.5918 3.90076V11.0994C5.5918 11.3187 5.83957 11.4426 6.01535 11.3154L10.9724 7.71605C11.0066 7.69139 11.0345 7.65895 11.0537 7.6214C11.0729 7.58385 11.083 7.54228 11.083 7.50009C11.083 7.45791 11.0729 7.41633 11.0537 7.37878C11.0345 7.34123 11.0066 7.30879 10.9724 7.28413ZM6.65988 9.52744V5.47275L9.45062 7.50009L6.65988 9.52744Z" fill="white"/>
</svg>
