<svg width="15" height="15" viewBox="0 0 15 15" fill="none" xmlns="http://www.w3.org/2000/svg">
<path d="M7.5 0C3.35826 0 0 3.35826 0 7.5C0 11.6417 3.35826 15 7.5 15C11.6417 15 15 11.6417 15 7.5C15 3.35826 11.6417 0 7.5 0ZM7.5 13.7277C4.06138 13.7277 1.27232 10.9386 1.27232 7.5C1.27232 4.06138 4.06138 1.27232 7.5 1.27232C10.9386 1.27232 13.7277 4.06138 13.7277 7.5C13.7277 10.9386 10.9386 13.7277 7.5 13.7277Z" fill="#565656"/>
<path d="M10.9724 7.28364L6.01535 3.68431C5.97559 3.65517 5.92852 3.63764 5.87939 3.63367C5.83025 3.62971 5.78098 3.63947 5.73707 3.66186C5.69315 3.68425 5.65632 3.7184 5.63067 3.76049C5.60502 3.80259 5.59156 3.85098 5.5918 3.90027V11.0989C5.5918 11.3182 5.83957 11.4421 6.01535 11.3149L10.9724 7.71556C11.0066 7.6909 11.0345 7.65846 11.0537 7.62091C11.0729 7.58337 11.083 7.54179 11.083 7.4996C11.083 7.45742 11.0729 7.41584 11.0537 7.37829C11.0345 7.34075 11.0066 7.3083 10.9724 7.28364ZM6.65988 9.52695V5.47226L9.45062 7.4996L6.65988 9.52695Z" fill="#565656"/>
</svg>
