<svg width="17" height="12" viewBox="0 0 17 12" fill="none" xmlns="http://www.w3.org/2000/svg">
<path d="M1 8.91667V2.66667C1 2.22464 1.17559 1.80072 1.48816 1.48816C1.80072 1.17559 2.22464 1 2.66667 1H9.75C10.192 1 10.616 1.17559 10.9285 1.48816C11.2411 1.80072 11.4167 2.22464 11.4167 2.66667V8.91667C11.4167 9.35869 11.2411 9.78262 10.9285 10.0952C10.616 10.4077 10.192 10.5833 9.75 10.5833H2.66667C2.22464 10.5833 1.80072 10.4077 1.48816 10.0952C1.17559 9.78262 1 9.35869 1 8.91667ZM15.3067 1.6175L11.9733 4.58667C11.9294 4.62568 11.8942 4.67354 11.8701 4.72711C11.846 4.78068 11.8334 4.83875 11.8333 4.8975V6.37917C11.8334 6.43792 11.846 6.49599 11.8701 6.54956C11.8942 6.60313 11.9294 6.65099 11.9733 6.69L15.3067 9.65917C15.3667 9.7125 15.4409 9.74733 15.5203 9.75948C15.5997 9.77163 15.6809 9.76058 15.7542 9.72765C15.8274 9.69472 15.8896 9.64132 15.9332 9.57387C15.9768 9.50643 16 9.42782 16 9.3475V1.92917C16 1.84885 15.9768 1.77024 15.9332 1.70279C15.8896 1.63535 15.8274 1.58195 15.7542 1.54902C15.6809 1.51609 15.5997 1.50503 15.5203 1.51718C15.4409 1.52933 15.3667 1.56417 15.3067 1.6175Z" stroke="white" stroke-width="1.5" stroke-linecap="round" stroke-linejoin="round"/>
</svg>
