<svg width="20" height="16" viewBox="0 0 20 16" fill="none" xmlns="http://www.w3.org/2000/svg">
<path d="M4.544 1.00017C4.46388 0.918423 4.36845 0.853269 4.26314 0.808425C4.15784 0.763581 4.04473 0.739925 3.93028 0.738811C3.81583 0.737696 3.70229 0.759145 3.59613 0.80193C3.48997 0.844715 3.39329 0.907999 3.3116 0.988165C2.3878 1.90706 1.65497 2.99967 1.15533 4.20305C0.655693 5.40643 0.39912 6.69678 0.400396 7.99977C0.39904 9.35277 0.675708 10.6916 1.21324 11.9333C1.75077 13.1749 2.53769 14.2929 3.5252 15.2178C3.69142 15.3714 3.91099 15.4542 4.13728 15.4486C4.36358 15.443 4.57878 15.3495 4.7372 15.1878C5.1164 14.8086 5.0696 14.205 4.7048 13.8558C3.91219 13.1004 3.28146 12.1918 2.85094 11.1851C2.42041 10.1784 2.19908 9.09466 2.2004 7.99977C2.2004 5.78457 3.0896 3.77577 4.532 2.31417C4.88 1.96017 4.916 1.37217 4.544 1.00017ZM6.6572 3.11577C6.49916 2.95315 6.2831 2.85982 6.05636 2.85622C5.82963 2.85262 5.61072 2.93905 5.4476 3.09657C4.79817 3.73719 4.28271 4.50064 3.93125 5.34243C3.57978 6.18423 3.39932 7.08754 3.4004 7.99977C3.4004 10.0302 4.2764 11.8554 5.672 13.1178C5.83684 13.2631 6.0513 13.3395 6.27092 13.331C6.49054 13.3225 6.69846 13.2298 6.8516 13.0722C7.2452 12.6786 7.172 12.0594 6.8024 11.7114C6.29594 11.235 5.89249 10.6599 5.61695 10.0215C5.34142 9.38313 5.19965 8.69506 5.2004 7.99977C5.2004 6.61977 5.7488 5.36697 6.6404 4.44777C6.9836 4.09497 7.04 3.49737 6.6572 3.11577ZM13.3436 3.11457C13.5016 2.95195 13.7177 2.85862 13.9444 2.85502C14.1712 2.85142 14.3901 2.93785 14.5532 3.09537C15.2028 3.73613 15.7183 4.49977 16.0698 5.34178C16.4213 6.1838 16.6016 7.08734 16.6004 7.99977C16.6004 10.0302 15.7244 11.8554 14.3288 13.1178C14.1639 13.2631 13.9495 13.3395 13.7299 13.331C13.5103 13.3225 13.3023 13.2298 13.1492 13.0722C12.7556 12.6786 12.8288 12.0594 13.1984 11.7114C13.7049 11.235 14.1083 10.6599 14.3838 10.0215C14.6594 9.38313 14.8011 8.69506 14.8004 7.99977C14.8004 6.61977 14.252 5.36697 13.3604 4.44777C13.0172 4.09497 12.9608 3.49617 13.3436 3.11457ZM15.4568 1.00017C15.5369 0.918423 15.6323 0.853269 15.7376 0.808425C15.843 0.763581 15.9561 0.739925 16.0705 0.738811C16.185 0.737696 16.2985 0.759145 16.4047 0.80193C16.5108 0.844715 16.6075 0.907999 16.6892 0.988165C17.613 1.90706 18.3458 2.99967 18.8455 4.20305C19.3451 5.40643 19.6017 6.69678 19.6004 7.99977C19.6018 9.35277 19.3251 10.6916 18.7876 11.9333C18.25 13.1749 17.4631 14.2929 16.4756 15.2178C16.3094 15.3714 16.0898 15.4542 15.8635 15.4486C15.6372 15.443 15.422 15.3495 15.2636 15.1878C14.8844 14.8086 14.9312 14.205 15.2972 13.8558C16.0896 13.1003 16.7201 12.1916 17.1504 11.1849C17.5807 10.1782 17.8019 9.09457 17.8004 7.99977C17.8004 5.78457 16.9112 3.77577 15.4688 2.31417C15.1208 1.96017 15.0848 1.37217 15.4568 1.00017ZM10.0004 6.19977C9.52301 6.19977 9.06517 6.38941 8.7276 6.72697C8.39004 7.06454 8.2004 7.52238 8.2004 7.99977C8.2004 8.47716 8.39004 8.93499 8.7276 9.27256C9.06517 9.61012 9.52301 9.79977 10.0004 9.79977C10.4778 9.79977 10.9356 9.61012 11.2732 9.27256C11.6108 8.93499 11.8004 8.47716 11.8004 7.99977C11.8004 7.52238 11.6108 7.06454 11.2732 6.72697C10.9356 6.38941 10.4778 6.19977 10.0004 6.19977Z" fill="white"/>
</svg>
