<svg width="20" height="16" viewBox="0 0 20 16" fill="none" xmlns="http://www.w3.org/2000/svg">
<path d="M4.54363 1.00065C4.46352 0.918912 4.36808 0.853758 4.26278 0.808913C4.15747 0.764069 4.04437 0.740414 3.92992 0.739299C3.81547 0.738185 3.70192 0.759633 3.59576 0.802418C3.48961 0.845203 3.39292 0.908487 3.31123 0.988654C2.38744 1.90755 1.65461 3.00016 1.15497 4.20354C0.655327 5.40692 0.398753 6.69727 0.400029 8.00025C0.398673 9.35326 0.675342 10.6921 1.21287 11.9338C1.7504 13.1754 2.53733 14.2933 3.52483 15.2183C3.69105 15.3719 3.91062 15.4547 4.13692 15.4491C4.36321 15.4435 4.57841 15.3499 4.73683 15.1883C5.11603 14.8091 5.06923 14.2055 4.70443 13.8563C3.91183 13.1009 3.2811 12.1923 2.85057 11.1856C2.42004 10.1789 2.19871 9.09514 2.20003 8.00025C2.20003 5.78505 3.08923 3.77625 4.53163 2.31465C4.87963 1.96065 4.91563 1.37265 4.54363 1.00065ZM6.65683 3.11625C6.49879 2.95364 6.28273 2.8603 6.056 2.85671C5.82927 2.85311 5.61035 2.93954 5.44723 3.09705C4.79781 3.73768 4.28235 4.50112 3.93088 5.34292C3.57941 6.18471 3.39896 7.08803 3.40003 8.00025C3.40003 10.0307 4.27603 11.8559 5.67163 13.1183C5.83648 13.2636 6.05094 13.34 6.27055 13.3315C6.49017 13.323 6.6981 13.2303 6.85123 13.0727C7.24483 12.6791 7.17163 12.0599 6.80203 11.7119C6.29557 11.2355 5.89212 10.6604 5.61659 10.022C5.34106 9.38362 5.19929 8.69555 5.20003 8.00025C5.20003 6.62025 5.74843 5.36745 6.64003 4.44825C6.98323 4.09545 7.03963 3.49785 6.65683 3.11625ZM13.3432 3.11505C13.5013 2.95244 13.7173 2.8591 13.9441 2.85551C14.1708 2.85191 14.3897 2.93834 14.5528 3.09585C15.2024 3.73662 15.7179 4.50026 16.0694 5.34227C16.4209 6.18428 16.6013 7.08783 16.6 8.00025C16.6 10.0307 15.724 11.8559 14.3284 13.1183C14.1636 13.2636 13.9491 13.34 13.7295 13.3315C13.5099 13.323 13.302 13.2303 13.1488 13.0727C12.7552 12.6791 12.8284 12.0599 13.198 11.7119C13.7045 11.2355 14.1079 10.6604 14.3835 10.022C14.659 9.38362 14.8008 8.69555 14.8 8.00025C14.8 6.62025 14.2516 5.36745 13.36 4.44825C13.0168 4.09545 12.9604 3.49665 13.3432 3.11505ZM15.4564 1.00065C15.5365 0.918912 15.632 0.853758 15.7373 0.808913C15.8426 0.764069 15.9557 0.740414 16.0701 0.739299C16.1846 0.738185 16.2981 0.759633 16.4043 0.802418C16.5105 0.845203 16.6071 0.908487 16.6888 0.988654C17.6126 1.90755 18.3455 3.00016 18.8451 4.20354C19.3447 5.40692 19.6013 6.69727 19.6 8.00025C19.6014 9.35326 19.3247 10.6921 18.7872 11.9338C18.2497 13.1754 17.4627 14.2933 16.4752 15.2183C16.309 15.3719 16.0894 15.4547 15.8631 15.4491C15.6368 15.4435 15.4216 15.3499 15.2632 15.1883C14.884 14.8091 14.9308 14.2055 15.2968 13.8563C16.0892 13.1008 16.7197 12.1921 17.15 11.1854C17.5804 10.1787 17.8015 9.09506 17.8 8.00025C17.8 5.78505 16.9108 3.77625 15.4684 2.31465C15.1204 1.96065 15.0844 1.37265 15.4564 1.00065ZM10 6.20025C9.52264 6.20025 9.0648 6.3899 8.72724 6.72746C8.38967 7.06503 8.20003 7.52286 8.20003 8.00025C8.20003 8.47764 8.38967 8.93548 8.72724 9.27305C9.0648 9.61061 9.52264 9.80025 10 9.80025C10.4774 9.80025 10.9353 9.61061 11.2728 9.27305C11.6104 8.93548 11.8 8.47764 11.8 8.00025C11.8 7.52286 11.6104 7.06503 11.2728 6.72746C10.9353 6.3899 10.4774 6.20025 10 6.20025Z" fill="#565656"/>
</svg>
